<svg width="24" height="25" viewBox="0 0 24 25" fill="none" xmlns="http://www.w3.org/2000/svg">
<path d="M6.14296 13.0713C5.82737 13.0713 5.57153 12.8155 5.57153 12.4999C5.57153 12.1843 5.82737 11.9285 6.14296 11.9285" stroke="#0E1422" stroke-width="1.8" stroke-linecap="round" stroke-linejoin="round"/>
<path d="M6.14296 13.0713C6.45855 13.0713 6.71439 12.8155 6.71439 12.4999C6.71439 12.1843 6.45855 11.9285 6.14296 11.9285" stroke="#0E1422" stroke-width="1.8" stroke-linecap="round" stroke-linejoin="round"/>
<path d="M12.0001 13.0713C11.6845 13.0713 11.4287 12.8155 11.4287 12.4999C11.4287 12.1843 11.6845 11.9285 12.0001 11.9285" stroke="#0E1422" stroke-width="1.8" stroke-linecap="round" stroke-linejoin="round"/>
<path d="M12.0001 13.0713C12.3157 13.0713 12.5715 12.8155 12.5715 12.4999C12.5715 12.1843 12.3157 11.9285 12.0001 11.9285" stroke="#0E1422" stroke-width="1.8" stroke-linecap="round" stroke-linejoin="round"/>
<path d="M17.8572 13.0713C17.5416 13.0713 17.2858 12.8155 17.2858 12.4999C17.2858 12.1843 17.5416 11.9285 17.8572 11.9285" stroke="#0E1422" stroke-width="1.8" stroke-linecap="round" stroke-linejoin="round"/>
<path d="M17.8572 13.0713C18.1729 13.0713 18.4286 12.8155 18.4286 12.4999C18.4286 12.1843 18.1729 11.9285 17.8572 11.9285" stroke="#0E1422" stroke-width="1.8" stroke-linecap="round" stroke-linejoin="round"/>
</svg>
