<svg width="20" height="21" viewBox="0 0 20 21" fill="none" xmlns="http://www.w3.org/2000/svg">
<path d="M0.802002 1.5H4.18521L5.39053 13.4769C5.44063 13.8071 5.60843 14.108 5.86302 14.3243C6.11761 14.5406 6.44184 14.6576 6.77595 14.6538H15.5041C15.8062 14.6696 16.1052 14.5861 16.3554 14.4161C16.6055 14.2461 16.7932 13.9989 16.8895 13.7123L18.7322 8.17385C18.801 7.96564 18.8193 7.74406 18.7856 7.52739C18.7518 7.31072 18.6671 7.10517 18.5382 6.92769C18.4041 6.73894 18.2247 6.58681 18.0166 6.48522C17.8085 6.38362 17.5781 6.33581 17.3467 6.34615H4.67011" stroke="#3D6200" stroke-width="1.42857" stroke-linecap="round" stroke-linejoin="round"/>
<path d="M15.2686 19.5C15.0849 19.5 14.9087 19.4271 14.7788 19.2972C14.6489 19.1674 14.5759 18.9913 14.5759 18.8077C14.5759 18.6241 14.6489 18.448 14.7788 18.3182C14.9087 18.1883 15.0849 18.1154 15.2686 18.1154C15.4524 18.1154 15.6286 18.1883 15.7585 18.3182C15.8884 18.448 15.9614 18.6241 15.9614 18.8077C15.9614 18.9913 15.8884 19.1674 15.7585 19.2972C15.6286 19.4271 15.4524 19.5 15.2686 19.5Z" fill="#3D6200" stroke="#3D6200" stroke-width="1.42857" stroke-linecap="round" stroke-linejoin="round"/>
<path d="M6.26339 19.5C6.07967 19.5 5.90348 19.4271 5.77357 19.2972C5.64366 19.1674 5.57068 18.9913 5.57068 18.8077C5.57068 18.6241 5.64366 18.448 5.77357 18.3182C5.90348 18.1883 6.07967 18.1154 6.26339 18.1154C6.44711 18.1154 6.6233 18.1883 6.75321 18.3182C6.88312 18.448 6.9561 18.6241 6.9561 18.8077C6.9561 18.9913 6.88312 19.1674 6.75321 19.2972C6.6233 19.4271 6.44711 19.5 6.26339 19.5Z" fill="#3D6200" stroke="#3D6200" stroke-width="1.42857" stroke-linecap="round" stroke-linejoin="round"/>
<path d="M9.36389 9.11539V11.8846" stroke="#3D6200" stroke-width="1.42857" stroke-linecap="round" stroke-linejoin="round"/>
<path d="M13.5201 9.11539V11.8846" stroke="#3D6200" stroke-width="1.42857" stroke-linecap="round" stroke-linejoin="round"/>
</svg>
