<svg width="20" height="18" viewBox="0 0 20 18" fill="none" xmlns="http://www.w3.org/2000/svg">
<g clip-path="url(#clip0_5755_4485)">
<path d="M15.3551 17.3571C15.1751 17.3571 15.0025 17.2894 14.8753 17.1688C14.748 17.0483 14.6765 16.8848 14.6765 16.7143C14.6765 16.5438 14.748 16.3803 14.8753 16.2597C15.0025 16.1391 15.1751 16.0714 15.3551 16.0714C15.5351 16.0714 15.7076 16.1391 15.8349 16.2597C15.9622 16.3803 16.0337 16.5438 16.0337 16.7143C16.0337 16.8848 15.9622 17.0483 15.8349 17.1688C15.7076 17.2894 15.5351 17.3571 15.3551 17.3571Z" fill="#DDE69B" stroke="#DDE69B" stroke-width="1.42857" stroke-linecap="round" stroke-linejoin="round"/>
<path d="M6.5338 17.3571C6.35383 17.3571 6.18123 17.2894 6.05397 17.1688C5.92672 17.0483 5.85522 16.8848 5.85522 16.7143C5.85522 16.5438 5.92672 16.3803 6.05397 16.2597C6.18123 16.1391 6.35383 16.0714 6.5338 16.0714C6.71376 16.0714 6.88636 16.1391 7.01362 16.2597C7.14088 16.3803 7.21237 16.5438 7.21237 16.7143C7.21237 16.8848 7.14088 17.0483 7.01362 17.1688C6.88636 17.2894 6.71376 17.3571 6.5338 17.3571Z" stroke="#DDE69B" stroke-width="1.42857" stroke-linecap="round" stroke-linejoin="round"/>
<path d="M13.5338 8.35715H9.4624" stroke="#DDE69B" stroke-width="1.42857" stroke-linecap="round" stroke-linejoin="round"/>
<path d="M11.4983 6.42856V10.2857" stroke="#DDE69B" stroke-width="1.42857" stroke-linecap="round" stroke-linejoin="round"/>
<path d="M1.17847 0.642853H4.57132L4.92825 3.85714M4.92825 3.85714L5.8009 11.7064C5.83609 12.0222 5.99336 12.3144 6.24243 12.5269C6.4915 12.7394 6.81474 12.857 7.1499 12.8571H15.727C16.0296 12.8571 16.3235 12.7613 16.562 12.585C16.8005 12.4087 16.9699 12.1619 17.0435 11.8839L18.7399 5.45528C18.79 5.2657 18.7939 5.06779 18.7512 4.87659C18.7084 4.6854 18.6203 4.50594 18.4933 4.35186C18.3664 4.19779 18.2041 4.07315 18.0187 3.98743C17.8333 3.9017 17.6298 3.85714 17.4235 3.85714H4.92825Z" stroke="#DDE69B" stroke-width="1.42857" stroke-linecap="round" stroke-linejoin="round"/>
</g>
<defs>
<clipPath id="clip0_5755_4485">
<rect width="19" height="18" fill="white" transform="translate(0.5)"/>
</clipPath>
</defs>
</svg>
