<svg width="24" height="25" viewBox="0 0 24 25" fill="none" xmlns="http://www.w3.org/2000/svg">
<path d="M6.14272 13.0713C5.82713 13.0713 5.57129 12.8155 5.57129 12.4999C5.57129 12.1843 5.82713 11.9285 6.14272 11.9285" stroke="#3D6200" stroke-width="1.8" stroke-linecap="round" stroke-linejoin="round"/>
<path d="M6.14272 13.0713C6.45831 13.0713 6.71415 12.8155 6.71415 12.4999C6.71415 12.1843 6.45831 11.9285 6.14272 11.9285" stroke="#3D6200" stroke-width="1.8" stroke-linecap="round" stroke-linejoin="round"/>
<path d="M11.9999 13.0713C11.6843 13.0713 11.4284 12.8155 11.4284 12.4999C11.4284 12.1843 11.6843 11.9285 11.9999 11.9285" stroke="#3D6200" stroke-width="1.8" stroke-linecap="round" stroke-linejoin="round"/>
<path d="M11.9999 13.0713C12.3154 13.0713 12.5713 12.8155 12.5713 12.4999C12.5713 12.1843 12.3154 11.9285 11.9999 11.9285" stroke="#3D6200" stroke-width="1.8" stroke-linecap="round" stroke-linejoin="round"/>
<path d="M17.857 13.0713C17.5414 13.0713 17.2855 12.8155 17.2855 12.4999C17.2855 12.1843 17.5414 11.9285 17.857 11.9285" stroke="#3D6200" stroke-width="1.8" stroke-linecap="round" stroke-linejoin="round"/>
<path d="M17.857 13.0713C18.1726 13.0713 18.4284 12.8155 18.4284 12.4999C18.4284 12.1843 18.1726 11.9285 17.857 11.9285" stroke="#3D6200" stroke-width="1.8" stroke-linecap="round" stroke-linejoin="round"/>
</svg>
