<svg width="24" height="25" viewBox="0 0 24 25" fill="none" xmlns="http://www.w3.org/2000/svg">
<path d="M14.857 16.5V18.7857C14.857 19.0888 14.7366 19.3795 14.5223 19.5938C14.3079 19.8081 14.0173 19.9286 13.7141 19.9286H5.71415C5.41104 19.9286 5.12035 19.8081 4.90602 19.5938C4.6917 19.3795 4.57129 19.0888 4.57129 18.7857V6.21427C4.57129 5.91116 4.6917 5.62047 4.90602 5.40615C5.12035 5.19182 5.41104 5.07141 5.71415 5.07141H13.7141C14.0173 5.07141 14.3079 5.19182 14.5223 5.40615C14.7366 5.62047 14.857 5.91116 14.857 6.21427V8.49998M11.4284 12.5H19.4284M19.4284 12.5L17.1427 10.2143M19.4284 12.5L17.1427 14.7857" stroke="#3D6200" stroke-width="1.43" stroke-linecap="round" stroke-linejoin="round"/>
</svg>
