<svg width="65" height="64" viewBox="0 0 65 64" fill="none" xmlns="http://www.w3.org/2000/svg">
<path d="M59.1673 32H43.1673L37.834 40H27.1673L21.834 32H5.83398" stroke="#3D6200" stroke-width="2" stroke-linecap="round" stroke-linejoin="round"/>
<path d="M15.034 13.6267L5.83398 32V48C5.83398 49.4145 6.39589 50.771 7.39608 51.7712C8.39628 52.7714 9.75283 53.3333 11.1673 53.3333H53.834C55.2485 53.3333 56.605 52.7714 57.6052 51.7712C58.6054 50.771 59.1673 49.4145 59.1673 48V32L49.9673 13.6267C49.5258 12.7381 48.8451 11.9903 48.0019 11.4674C47.1586 10.9445 46.1862 10.6672 45.194 10.6667H19.8073C18.8151 10.6672 17.8427 10.9445 16.9994 11.4674C16.1562 11.9903 15.4755 12.7381 15.034 13.6267Z" stroke="#3D6200" stroke-width="2" stroke-linecap="round" stroke-linejoin="round"/>
</svg>
