<?xml version="1.0" standalone="no"?>
<!DOCTYPE svg PUBLIC "-//W3C//DTD SVG 1.0//EN" "http://www.w3.org/TR/2001/REC-SVG-20010904/DTD/svg10.dtd">
<svg xmlns="http://www.w3.org/2000/svg" xmlns:xlink="http://www.w3.org/1999/xlink" id="body_1" width="24" height="24">

<g transform="matrix(0.923077 0 0 0.923077 -0 0.923077)">
	<g>
	</g>
	<g>
	</g>
	<g>
        <path d="M12.31 16.826C 12.2864 17.9963 11.3464 18.9278 10.2052 18.9118C 9.06401 18.8957 8.14927 17.9382 8.15697 16.7676C 8.16467 15.5971 9.09191 14.6522 10.2332 14.652C 10.7897 14.6578 11.3212 14.8901 11.7106 15.2978C 12.1001 15.7055 12.3157 16.2552 12.31 16.826z" stroke="#000000" stroke-width="1.5" stroke-linecap="square" fill="none" />
        <path d="M22.2014 16.826C 22.1778 17.9963 21.2378 18.9278 20.0966 18.9118C 18.9554 18.8957 18.0407 17.9382 18.0484 16.7676C 18.0561 15.5971 18.9833 14.6522 20.1246 14.652C 20.6811 14.6578 21.2126 14.8901 21.602 15.2978C 21.9915 15.7055 22.2071 16.2552 22.2014 16.826z" stroke="#000000" stroke-width="1.5" stroke-linecap="square" fill="none" />
        <path d="M17.8032 17.576C 18.2174 17.576 18.5532 17.2402 18.5532 16.826C 18.5532 16.4118 18.2174 16.076 17.8032 16.076L17.8032 16.076L17.8032 17.576zM12.31 16.076C 11.8958 16.076 11.56 16.4118 11.56 16.826C 11.56 17.2402 11.8958 17.576 12.31 17.576L12.31 17.576L12.31 16.076zM17.0571 16.826C 17.0571 17.2402 17.3928 17.576 17.8071 17.576C 18.2213 17.576 18.5571 17.2402 18.5571 16.826L18.5571 16.826L17.0571 16.826zM18.5571 11.559C 18.5571 11.1448 18.2213 10.809 17.8071 10.809C 17.3928 10.809 17.0571 11.1448 17.0571 11.559L17.0571 11.559L18.5571 11.559zM17.8071 16.076C 17.3928 16.076 17.0571 16.4118 17.0571 16.826C 17.0571 17.2402 17.3928 17.576 17.8071 17.576L17.8071 17.576L17.8071 16.076zM18.0518 17.576C 18.466 17.576 18.8018 17.2402 18.8018 16.826C 18.8018 16.4118 18.466 16.076 18.0518 16.076L18.0518 16.076L18.0518 17.576zM22.189 16.0762C 21.7749 16.0852 21.4465 16.4281 21.4555 16.8423C 21.4644 17.2564 21.8074 17.5848 22.2215 17.5758L22.2215 17.5758L22.189 16.0762zM24.4 14.485L25.1499 14.4718C 25.1492 14.4331 25.1455 14.3946 25.1389 14.3565L25.1389 14.3565L24.4 14.485zM24.63 11.4305C 24.559 11.0224 24.1706 10.7491 23.7625 10.8201C 23.3544 10.8911 23.0812 11.2794 23.1521 11.6875L23.1521 11.6875L24.63 11.4305zM17.8031 6.127C 17.3889 6.127 17.0531 6.46279 17.0531 6.877C 17.0531 7.29121 17.3889 7.627 17.8031 7.627L17.8031 7.627L17.8031 6.127zM21.2849 6.877L21.2849 7.62702L21.2897 7.62698L21.2849 6.877zM22.8737 7.56387L22.327 8.07731L22.8737 7.56387zM23.4835 9.218L22.7342 9.18603C 22.7319 9.23979 22.7354 9.29363 22.7446 9.34663L22.7446 9.34663L23.4835 9.218zM23.1522 11.6876C 23.2232 12.0957 23.6116 12.3689 24.0197 12.2979C 24.4278 12.2268 24.701 11.8384 24.6299 11.4304L24.6299 11.4304L23.1522 11.6876zM18.5531 6.877C 18.5531 6.46279 18.2174 6.127 17.8031 6.127C 17.3889 6.127 17.0531 6.46279 17.0531 6.877L17.0531 6.877L18.5531 6.877zM17.0531 11.559C 17.0531 11.9732 17.3889 12.309 17.8031 12.309C 18.2174 12.309 18.5531 11.9732 18.5531 11.559L18.5531 11.559L17.0531 11.559zM17.0531 6.877C 17.0531 7.29121 17.3889 7.627 17.8031 7.627C 18.2174 7.627 18.5531 7.29121 18.5531 6.877L18.5531 6.877L17.0531 6.877zM17.8031 6.077L17.0531 6.0722L17.0531 6.077L17.8031 6.077zM16.7657 5L16.77 4.25L16.7657 4.25L16.7657 5zM7.42037 5L7.42037 4.24999L7.41679 4.25001L7.42037 5zM6.68411 5.31693L6.14467 4.79587L6.68411 5.31693zM6.382 6.075L7.13201 6.075L7.13199 6.07158L6.382 6.075zM6.382 15.75L7.132 15.7534L7.132 15.75L6.382 15.75zM6.68411 16.5081L6.14467 17.0291L6.68411 16.5081zM7.42037 16.825L7.41679 17.575L7.42037 17.575L7.42037 16.825zM8.1526 17.575C 8.56681 17.575 8.9026 17.2392 8.9026 16.825C 8.9026 16.4108 8.56681 16.075 8.1526 16.075L8.1526 16.075L8.1526 17.575zM17.8051 10.808C 17.3909 10.808 17.0551 11.1438 17.0551 11.558C 17.0551 11.9722 17.3909 12.308 17.8051 12.308L17.8051 12.308L17.8051 10.808zM23.893 12.308C 24.3072 12.308 24.643 11.9722 24.643 11.558C 24.643 11.1438 24.3072 10.808 23.893 10.808L23.893 10.808L23.893 12.308zM1 6.25C 0.585786 6.25 0.25 6.58579 0.25 7C 0.25 7.41421 0.585786 7.75 1 7.75L1 7.75L1 6.25zM4.05175 7.75C 4.46596 7.75 4.80175 7.41421 4.80175 7C 4.80175 6.58579 4.46596 6.25 4.05175 6.25L4.05175 6.25L4.05175 7.75zM1.975 9.25C 1.56079 9.25 1.225 9.58579 1.225 10C 1.225 10.4142 1.56079 10.75 1.975 10.75L1.975 10.75L1.975 9.25zM3.925 10.75C 4.33921 10.75 4.675 10.4142 4.675 10C 4.675 9.58579 4.33921 9.25 3.925 9.25L3.925 9.25L3.925 10.75zM2.56975 12.25C 2.15554 12.25 1.81975 12.5858 1.81975 13C 1.81975 13.4142 2.15554 13.75 2.56975 13.75L2.56975 13.75L2.56975 12.25zM3.925 13.75C 4.33921 13.75 4.675 13.4142 4.675 13C 4.675 12.5858 4.33921 12.25 3.925 12.25L3.925 12.25L3.925 13.75zM17.8032 16.076L12.31 16.076L12.31 17.576L17.8032 17.576L17.8032 16.076zM18.5571 16.826L18.5571 11.559L17.0571 11.559L17.0571 16.826L18.5571 16.826zM17.8071 17.576L18.0518 17.576L18.0518 16.076L17.8071 16.076L17.8071 17.576zM22.2215 17.5758C 23.8876 17.5397 25.1791 16.1341 25.1499 14.4718L25.1499 14.4718L23.6501 14.4982C 23.6655 15.3704 22.9939 16.0587 22.189 16.0762L22.189 16.0762L22.2215 17.5758zM25.1389 14.3565L24.63 11.4305L23.1521 11.6875L23.6611 14.6135L25.1389 14.3565zM17.8031 7.627L21.2849 7.627L21.2849 6.127L17.8031 6.127L17.8031 7.627zM21.2897 7.62698C 21.6768 7.62448 22.0522 7.7847 22.327 8.07731L22.327 8.07731L23.4204 7.05042C 22.8641 6.4581 22.0909 6.12177 21.28 6.12702L21.28 6.12702L21.2897 7.62698zM22.327 8.07731C 22.6025 8.37065 22.7519 8.7712 22.7342 9.18603L22.7342 9.18603L24.2328 9.24997C 24.2675 8.43728 23.976 7.642 23.4204 7.05042L23.4204 7.05042L22.327 8.07731zM22.7446 9.34663L23.1522 11.6876L24.6299 11.4304L24.2224 9.08937L22.7446 9.34663zM17.0531 6.877L17.0531 11.559L18.5531 11.559L18.5531 6.877L17.0531 6.877zM18.5531 6.877L18.5531 6.077L17.0531 6.077L17.0531 6.877L18.5531 6.877zM18.5531 6.0818C 18.5562 5.60485 18.3745 5.14259 18.0422 4.79768L18.0422 4.79768L16.9619 5.83829C 17.0188 5.8974 17.0537 5.98123 17.0532 6.0722L17.0532 6.0722L18.5531 6.0818zM18.0422 4.79768C 17.7094 4.45212 17.2522 4.25277 16.77 4.25001L16.77 4.25001L16.7615 5.74999C 16.8331 5.7504 16.9056 5.77984 16.9619 5.83829L16.9619 5.83829L18.0422 4.79768zM16.7657 4.25L7.42037 4.25L7.42037 5.75L16.7657 5.75L16.7657 4.25zM7.41679 4.25001C 6.93498 4.25231 6.4778 4.45098 6.14467 4.79587L6.14467 4.79587L7.22355 5.83799C 7.27989 5.77967 7.3524 5.75033 7.42396 5.74999L7.42396 5.74999L7.41679 4.25001zM6.14467 4.79587C 5.81216 5.1401 5.62983 5.60177 5.63201 6.07843L5.63201 6.07843L7.13199 6.07158C 7.13158 5.98066 7.16659 5.89696 7.22355 5.83799L7.22355 5.83799L6.14467 4.79587zM5.632 6.075L5.632 15.75L7.132 15.75L7.132 6.075L5.632 6.075zM5.63201 15.7466C 5.62983 16.2232 5.81216 16.6849 6.14467 17.0291L6.14467 17.0291L7.22355 15.987C 7.16659 15.928 7.13158 15.8443 7.13199 15.7534L7.13199 15.7534L5.63201 15.7466zM6.14467 17.0291C 6.4778 17.374 6.93498 17.5727 7.41679 17.575L7.41679 17.575L7.42396 16.075C 7.3524 16.0747 7.27988 16.0453 7.22355 15.987L7.22355 15.987L6.14467 17.0291zM7.42037 17.575L8.1526 17.575L8.1526 16.075L7.42037 16.075L7.42037 17.575zM17.8051 12.308L23.893 12.308L23.893 10.808L17.8051 10.808L17.8051 12.308zM1 7.75L4.05175 7.75L4.05175 6.25L1 6.25L1 7.75zM1.975 10.75L3.925 10.75L3.925 9.25L1.975 9.25L1.975 10.75zM2.56975 13.75L3.925 13.75L3.925 12.25L2.56975 12.25L2.56975 13.75z" stroke="none" fill="#000000" fill-rule="nonzero" />
	</g>
</g>
</svg>
