<svg width="25" height="25" viewBox="0 0 25 25" fill="none" xmlns="http://www.w3.org/2000/svg">
<path fill-rule="evenodd" clip-rule="evenodd" d="M9.91805 7.58299C10.6829 6.81812 11.7203 6.38842 12.802 6.38842C13.8837 6.38842 14.9211 6.81812 15.686 7.58299C16.4508 8.34787 16.8805 9.38525 16.8805 10.4669C16.8805 11.5486 16.4508 12.586 15.686 13.3509C14.9211 14.1158 13.8837 14.5455 12.802 14.5455C11.7203 14.5455 10.6829 14.1158 9.91805 13.3509C9.15317 12.586 8.72347 11.5486 8.72347 10.4669C8.72347 9.38525 9.15317 8.34787 9.91805 7.58299ZM12.802 7.76864C12.0864 7.76864 11.4 8.05292 10.894 8.55895C10.388 9.06498 10.1037 9.75131 10.1037 10.4669C10.1037 11.1826 10.388 11.8689 10.894 12.3749C11.4 12.881 12.0864 13.1653 12.802 13.1653C13.5176 13.1653 14.204 12.881 14.71 12.3749C15.216 11.8689 15.5003 11.1826 15.5003 10.4669C15.5003 9.75131 15.216 9.06498 14.71 8.55895C14.204 8.05292 13.5176 7.76864 12.802 7.76864Z" fill="#3D6200"/>
<path fill-rule="evenodd" clip-rule="evenodd" d="M12.802 16.5804C11.7579 16.5804 10.7313 16.849 9.82097 17.3603C8.91064 17.8717 8.14716 18.6087 7.60393 19.5003C7.40564 19.8258 6.98103 19.9289 6.65554 19.7307C6.33005 19.5324 6.22693 19.1077 6.42523 18.7823C7.09164 17.6884 8.02824 16.7843 9.145 16.157C10.2618 15.5297 11.5211 15.2002 12.802 15.2002C14.0829 15.2002 15.3422 15.5297 16.459 16.157C17.5758 16.7843 18.5124 17.6884 19.1788 18.7823C19.3771 19.1077 19.274 19.5324 18.9485 19.7307C18.623 19.9289 18.1984 19.8258 18.0001 19.5003C17.4568 18.6087 16.6934 17.8717 15.783 17.3603C14.8727 16.849 13.8461 16.5804 12.802 16.5804Z" fill="#3D6200"/>
<path fill-rule="evenodd" clip-rule="evenodd" d="M6.08449 5.78249C7.86608 4.00089 10.2824 3 12.802 3C15.3216 3 17.7379 4.00089 19.5195 5.78249C21.3011 7.56408 22.302 9.98044 22.302 12.5C22.302 15.0196 21.3011 17.4359 19.5195 19.2175C17.7379 20.9991 15.3216 22 12.802 22C10.2824 22 7.86608 20.9991 6.08449 19.2175C4.30289 17.4359 3.302 15.0196 3.302 12.5C3.302 9.98044 4.30289 7.56408 6.08449 5.78249ZM12.802 4.38022C10.6485 4.38022 8.5832 5.23569 7.06045 6.75845C5.53769 8.2812 4.68222 10.3465 4.68222 12.5C4.68222 14.6535 5.53769 16.7188 7.06045 18.2416C8.5832 19.7643 10.6485 20.6198 12.802 20.6198C14.9555 20.6198 17.0208 19.7643 18.5436 18.2416C20.0663 16.7188 20.9218 14.6535 20.9218 12.5C20.9218 10.3465 20.0663 8.2812 18.5436 6.75845C17.0208 5.23569 14.9555 4.38022 12.802 4.38022Z" fill="#3D6200"/>
</svg>
