<svg width="24" height="24" viewBox="0 0 24 24" fill="none" xmlns="http://www.w3.org/2000/svg">
<path d="M14.1428 6.99997V5.57139C14.1428 5.19251 13.9923 4.82915 13.7244 4.56124C13.4565 4.29334 13.0931 4.14282 12.7142 4.14282H11.2856" stroke="#3D6200" stroke-width="1.42857" stroke-linecap="round" stroke-linejoin="round"/>
<path d="M7.71436 17H4.14293C3.76404 17 3.40068 16.8494 3.13277 16.5815C2.86487 16.3137 2.71436 15.9503 2.71436 15.5714V5.57139C2.71436 5.19251 2.86487 4.82915 3.13277 4.56124C3.40068 4.29334 3.76404 4.14282 4.14293 4.14282H5.5715" stroke="#3D6200" stroke-width="1.42857" stroke-linecap="round" stroke-linejoin="round"/>
<path d="M19.8571 9.85718H12.7142C11.9252 9.85718 11.2856 10.4968 11.2856 11.2857V19.8572C11.2856 20.6462 11.9252 21.2857 12.7142 21.2857H19.8571C20.6461 21.2857 21.2856 20.6462 21.2856 19.8572V11.2857C21.2856 10.4968 20.6461 9.85718 19.8571 9.85718Z" stroke="#3D6200" stroke-width="1.42857" stroke-linecap="round" stroke-linejoin="round"/>
<path d="M11.6429 2.71436H5.21436L5.80007 5.02864C5.83576 5.18354 5.92308 5.32168 6.04771 5.42034C6.17234 5.519 6.32683 5.57231 6.48578 5.5715H10.3715C10.5305 5.57231 10.6849 5.519 10.8096 5.42034C10.9342 5.32168 11.0215 5.18354 11.0572 5.02864L11.6429 2.71436Z" stroke="#3D6200" stroke-width="1.42857" stroke-linecap="round" stroke-linejoin="round"/>
<path d="M14.1431 14.1428H18.4288" stroke="#3D6200" stroke-width="1.42857" stroke-linecap="round" stroke-linejoin="round"/>
<path d="M14.1431 17H18.4288" stroke="#3D6200" stroke-width="1.42857" stroke-linecap="round" stroke-linejoin="round"/>
</svg>
