<svg width="24" height="25" viewBox="0 0 24 25" fill="none" xmlns="http://www.w3.org/2000/svg">
<path fill-rule="evenodd" clip-rule="evenodd" d="M17.9237 4.13777C18.2026 3.85882 18.6549 3.85882 18.9338 4.13777L21.791 6.99491C22.0699 7.27386 22.0699 7.72612 21.791 8.00506C21.512 8.28401 21.0598 8.28401 20.7808 8.00506L18.4287 5.653L10.5338 13.5479C10.2549 13.8269 9.80261 13.8269 9.52366 13.5479C9.24472 13.269 9.24472 12.8167 9.52366 12.5378L17.9237 4.13777Z" fill="#3D6200"/>
<path fill-rule="evenodd" clip-rule="evenodd" d="M14.7092 7.35206C14.9882 7.07312 15.4404 7.07312 15.7194 7.35206L18.2194 9.85206C18.4983 10.131 18.4983 10.5833 18.2194 10.8622C17.9404 11.1412 17.4882 11.1412 17.2092 10.8622L14.7092 8.36221C14.4303 8.08327 14.4303 7.63101 14.7092 7.35206Z" fill="#3D6200"/>
<path fill-rule="evenodd" clip-rule="evenodd" d="M2 16.0714C2 13.31 4.23858 11.0714 7 11.0714C9.76142 11.0714 12 13.31 12 16.0714C12 18.8329 9.76141 21.0714 7 21.0714C4.23859 21.0714 2 18.8329 2 16.0714ZM7 12.5C5.02756 12.5 3.42857 14.099 3.42857 16.0714C3.42857 18.0439 5.02755 19.6428 7 19.6428C8.97245 19.6428 10.5714 18.0439 10.5714 16.0714C10.5714 14.099 8.97244 12.5 7 12.5Z" fill="#3D6200"/>
</svg>
