<?xml version="1.0" encoding="UTF-8"?>
<svg xmlns="http://www.w3.org/2000/svg" xmlns:xlink="http://www.w3.org/1999/xlink" width="264px" height="40px" viewBox="0 0 264 40" version="1.1">
<defs>
<clipPath id="clip1">
  <path d="M 64 0 L 69 0 L 69 39.609375 L 64 39.609375 Z M 64 0 "/>
</clipPath>
<clipPath id="clip2">
  <path d="M 77.808594 0.0976562 L 263.664062 0.0976562 L 263.664062 39.511719 L 77.808594 39.511719 Z M 77.808594 0.0976562 "/>
</clipPath>
<clipPath id="clip3">
  <path d="M 0.0117188 0.0976562 L 55.648438 0.0976562 L 55.648438 39.511719 L 0.0117188 39.511719 Z M 0.0117188 0.0976562 "/>
</clipPath>
</defs>
<g id="surface1">
<g clip-path="url(#clip1)" clip-rule="nonzero">
<path style=" stroke:none;fill-rule:nonzero;fill:rgb(100%,100%,100%);fill-opacity:1;" d="M 66.730469 0 C 67.710938 0 68.507812 1.179688 68.507812 2.636719 L 68.507812 36.972656 C 68.507812 38.429688 67.710938 39.609375 66.730469 39.609375 C 65.746094 39.609375 64.953125 38.429688 64.953125 36.972656 L 64.953125 2.636719 C 64.953125 1.179688 65.746094 0 66.730469 0 Z M 66.730469 0 "/>
</g>
<g clip-path="url(#clip2)" clip-rule="nonzero">
<path style=" stroke:none;fill-rule:nonzero;fill:rgb(100%,100%,100%);fill-opacity:1;" d="M 90.109375 32.710938 C 87.453125 32.710938 85.210938 32.082031 83.386719 30.820312 C 81.5625 29.558594 80.179688 27.785156 79.238281 25.503906 C 78.292969 23.222656 77.816406 20.542969 77.816406 17.460938 C 77.816406 14.402344 78.28125 11.734375 79.210938 9.453125 C 80.140625 7.171875 81.511719 5.402344 83.316406 4.144531 C 85.132812 2.882812 87.351562 2.253906 89.984375 2.253906 C 92.730469 2.253906 95.015625 2.890625 96.835938 4.171875 C 98.660156 5.457031 100.03125 7.238281 100.949219 9.519531 C 101.859375 11.800781 102.316406 14.449219 102.316406 17.460938 C 102.316406 20.925781 101.726562 23.882812 100.542969 26.332031 C 99.359375 28.78125 97.644531 30.542969 95.390625 31.613281 L 98.601562 36.894531 L 93.742188 39.511719 L 90.53125 32.710938 C 90.390625 32.710938 90.25 32.710938 90.109375 32.710938 Z M 90.109375 28.191406 C 91.957031 28.191406 93.515625 27.300781 94.789062 25.519531 C 96.0625 23.734375 96.699219 21.007812 96.699219 17.335938 C 96.699219 13.796875 96.105469 11.132812 94.917969 9.339844 C 93.730469 7.542969 92.085938 6.644531 89.984375 6.644531 C 87.945312 6.644531 86.351562 7.546875 85.203125 9.351562 C 84.054688 11.152344 83.476562 13.828125 83.476562 17.375 C 83.476562 21.050781 84.085938 23.769531 85.304688 25.539062 C 86.523438 27.308594 88.128906 28.191406 90.109375 28.191406 Z M 113.132812 32.710938 C 111.003906 32.710938 109.4375 32.03125 108.433594 30.675781 C 107.425781 29.3125 106.921875 27.441406 106.921875 25.066406 L 106.921875 11.167969 L 112.203125 11.167969 L 112.203125 24.601562 C 112.203125 25.753906 112.414062 26.699219 112.835938 27.429688 C 113.257812 28.164062 113.976562 28.527344 114.988281 28.527344 C 115.988281 28.527344 116.820312 28.164062 117.488281 27.429688 C 118.160156 26.699219 118.496094 25.753906 118.496094 24.601562 L 118.496094 11.167969 L 123.777344 11.167969 L 123.777344 32.203125 L 119.003906 32.203125 L 118.894531 29.476562 C 118.375 30.308594 117.667969 31.054688 116.773438 31.714844 C 115.875 32.378906 114.664062 32.710938 113.132812 32.710938 Z M 135.773438 7.746094 L 129.859375 7.746094 L 129.859375 2.125 L 135.773438 2.125 Z M 135.5625 32.203125 L 130.070312 32.203125 L 130.070312 11.167969 L 135.5625 11.167969 Z M 150.125 32.710938 C 147.890625 32.710938 146.066406 32.207031 144.660156 31.199219 C 143.25 30.191406 142.210938 28.855469 141.542969 27.195312 C 140.871094 25.53125 140.535156 23.722656 140.535156 21.769531 C 140.535156 19.828125 140.910156 18.011719 141.660156 16.320312 C 142.402344 14.628906 143.507812 13.265625 144.972656 12.222656 C 146.4375 11.179688 148.253906 10.660156 150.421875 10.660156 C 151.632812 10.660156 152.730469 10.785156 153.714844 11.039062 C 154.699219 11.292969 155.660156 11.800781 156.585938 12.5625 L 154.855469 17.039062 C 154.433594 16.40625 153.820312 15.917969 153.015625 15.570312 C 152.203125 15.226562 151.4375 15.054688 150.714844 15.054688 C 147.648438 15.054688 146.113281 17.277344 146.113281 21.726562 C 146.113281 24.066406 146.496094 25.761719 147.269531 26.8125 C 148.035156 27.871094 149.183594 28.402344 150.714844 28.402344 C 151.730469 28.402344 152.625 28.207031 153.402344 27.820312 C 154.175781 27.429688 154.757812 27.019531 155.152344 26.585938 L 156.757812 30.34375 C 156.363281 30.769531 155.589844 31.265625 154.433594 31.839844 C 153.277344 32.421875 151.84375 32.710938 150.125 32.710938 Z M 166.050781 32.203125 L 161.066406 32.203125 L 161.066406 0.0976562 L 166.050781 0.0976562 L 166.050781 15.855469 L 165.878906 20.796875 L 172.34375 11.167969 L 178.339844 11.167969 L 170.992188 20.839844 L 179.058594 32.203125 L 172.679688 32.203125 L 165.878906 22.023438 L 166.050781 27.175781 Z M 187.972656 32.203125 L 182.734375 32.203125 L 182.734375 2.253906 L 183.15625 2.253906 L 195.070312 16.304688 L 206.894531 2.253906 L 207.359375 2.253906 L 207.359375 32.203125 L 202.121094 32.203125 L 202.121094 19.574219 L 202.308594 14.589844 L 200.8125 16.871094 L 195.027344 23.671875 L 189.238281 16.871094 L 187.734375 14.589844 L 187.972656 19.574219 Z M 218.257812 32.796875 C 216.964844 32.796875 215.886719 32.503906 215.03125 31.925781 C 214.179688 31.351562 213.546875 30.585938 213.128906 29.628906 C 212.71875 28.667969 212.515625 27.613281 212.515625 26.460938 C 212.515625 25.8125 212.675781 25.097656 213.003906 24.320312 C 213.335938 23.550781 213.925781 22.8125 214.769531 22.109375 C 215.613281 21.402344 216.804688 20.828125 218.34375 20.375 C 219.875 19.925781 221.847656 19.699219 224.257812 19.699219 L 224.257812 18.726562 C 224.257812 17.6875 224.007812 16.820312 223.503906 16.125 C 223.003906 15.4375 222 15.09375 220.496094 15.09375 C 219.398438 15.09375 218.324219 15.28125 217.269531 15.652344 C 216.222656 16.023438 215.453125 16.488281 214.964844 17.039062 L 213.273438 12.984375 C 214.117188 12.402344 215.25 11.871094 216.660156 11.386719 C 218.074219 10.902344 219.648438 10.660156 221.382812 10.660156 C 223.46875 10.660156 225.085938 10.976562 226.242188 11.605469 C 227.398438 12.242188 228.203125 13.140625 228.667969 14.300781 C 229.132812 15.460938 229.367188 16.824219 229.367188 18.390625 L 229.367188 32.203125 L 224.847656 32.203125 L 224.46875 29.203125 C 223.003906 31.597656 220.933594 32.796875 218.257812 32.796875 Z M 220.496094 28.742188 C 221.128906 28.742188 221.808594 28.484375 222.535156 27.972656 C 223.261719 27.453125 223.835938 26.792969 224.257812 25.996094 L 224.257812 22.996094 C 224.117188 22.96875 223.964844 22.953125 223.800781 22.953125 C 223.636719 22.953125 223.453125 22.953125 223.242188 22.953125 C 222.464844 22.953125 221.652344 23.039062 220.800781 23.214844 C 219.949219 23.390625 219.230469 23.695312 218.640625 24.136719 C 218.046875 24.570312 217.75 25.175781 217.75 25.953125 C 217.75 26.964844 217.976562 27.683594 218.425781 28.105469 C 218.878906 28.527344 219.566406 28.742188 220.496094 28.742188 Z M 240.089844 32.203125 L 234.808594 32.203125 L 234.808594 11.167969 L 239.582031 11.167969 L 239.835938 14.882812 C 240.058594 14.332031 240.410156 13.746094 240.882812 13.125 C 241.355469 12.507812 242.011719 11.984375 242.851562 11.554688 C 243.683594 11.128906 244.761719 10.914062 246.085938 10.914062 C 246.496094 10.914062 246.859375 10.941406 247.167969 10.996094 C 247.476562 11.054688 247.765625 11.136719 248.03125 11.25 L 246.847656 16.785156 C 246.394531 16.335938 245.707031 16.109375 244.777344 16.109375 C 243.695312 16.109375 242.808594 16.332031 242.117188 16.777344 C 241.429688 17.214844 240.917969 17.710938 240.585938 18.261719 C 240.253906 18.808594 240.089844 19.234375 240.089844 19.53125 Z M 258.082031 32.839844 C 255.707031 32.839844 254.097656 32.21875 253.257812 30.980469 C 252.417969 29.738281 252 27.867188 252 25.359375 L 252 15.601562 L 249.253906 15.601562 L 249.253906 11.167969 L 252.210938 11.167969 L 252.507812 6.730469 L 257.109375 4.746094 L 257.109375 11.167969 L 262.308594 11.167969 L 262.308594 15.601562 L 257.109375 15.601562 L 257.109375 25.234375 C 257.109375 26.457031 257.28125 27.304688 257.625 27.777344 C 257.976562 28.25 258.453125 28.488281 259.054688 28.488281 C 259.671875 28.488281 260.328125 28.324219 261.023438 27.996094 C 261.710938 27.675781 262.25 27.347656 262.644531 27.007812 L 263.660156 31.273438 C 263.226562 31.585938 262.660156 31.855469 261.960938 32.085938 C 261.261719 32.324219 260.558594 32.503906 259.847656 32.636719 C 259.136719 32.769531 258.550781 32.839844 258.082031 32.839844 Z M 258.082031 32.839844 "/>
</g>
<g clip-path="url(#clip3)" clip-rule="nonzero">
<path style=" stroke:none;fill-rule:nonzero;fill:rgb(100%,100%,100%);fill-opacity:1;" d="M 55.589844 15.707031 L 51.1875 0.152344 L 27.832031 0.0976562 L 4.472656 0.0976562 L 0.0703125 15.707031 C -0.152344 16.488281 0.292969 17.324219 1.074219 17.546875 L 1.128906 17.546875 C 1.296875 17.605469 1.464844 17.660156 1.6875 17.660156 L 9.882812 17.660156 L 9.882812 38.007812 C 9.882812 38.84375 10.550781 39.511719 11.386719 39.511719 L 44.332031 39.511719 C 45.167969 39.511719 45.835938 38.84375 45.835938 38.007812 L 45.835938 17.660156 L 54.03125 17.660156 C 54.253906 17.660156 54.417969 17.605469 54.585938 17.546875 L 54.644531 17.546875 C 55.367188 17.324219 55.8125 16.488281 55.589844 15.707031 M 52.246094 14.703125 L 47.730469 14.703125 L 45.945312 3.054688 L 48.902344 3.054688 Z M 38.476562 14.703125 L 37.585938 3.054688 L 42.9375 3.054688 L 44.664062 14.648438 L 38.476562 14.648438 Z M 10.941406 14.703125 L 12.667969 3.054688 L 18.019531 3.054688 L 17.128906 14.703125 Z M 21.03125 3.054688 L 26.324219 3.054688 L 26.324219 14.703125 L 20.136719 14.703125 Z M 29.335938 3.054688 L 34.632812 3.054688 L 35.523438 14.703125 L 29.335938 14.703125 Z M 6.703125 3.109375 L 9.660156 3.109375 L 7.929688 14.703125 L 3.414062 14.703125 Z M 24.820312 36.503906 L 24.820312 26.746094 L 30.894531 26.746094 L 30.894531 36.503906 Z M 42.824219 36.503906 L 33.796875 36.503906 L 33.796875 23.792969 L 21.867188 23.792969 L 21.867188 36.503906 L 12.835938 36.503906 L 12.835938 17.660156 L 42.824219 17.660156 Z M 42.824219 36.503906 "/>
</g>
</g>
</svg>
