<?xml version="1.0" encoding="UTF-8"?>
<svg xmlns="http://www.w3.org/2000/svg" xmlns:xlink="http://www.w3.org/1999/xlink" width="329px" height="50px" viewBox="0 0 328 50" version="1.1">
<defs>
<clipPath id="clip1">
  <path d="M 81.253906 0.0664062 L 85.722656 0.0664062 L 85.722656 49.457031 L 81.253906 49.457031 Z M 81.253906 0.0664062 "/>
</clipPath>
<clipPath id="clip2">
  <path d="M 97.175781 0.195312 L 326.382812 0.195312 L 326.382812 49.328125 L 97.175781 49.328125 Z M 97.175781 0.195312 "/>
</clipPath>
<clipPath id="clip3">
  <path d="M 1.226562 0.195312 L 69.839844 0.195312 L 69.839844 49.328125 L 1.226562 49.328125 Z M 1.226562 0.195312 "/>
</clipPath>
</defs>
<g id="surface1">
<g clip-path="url(#clip1)" clip-rule="nonzero">
<path style=" stroke:none;fill-rule:nonzero;fill:rgb(23.921569%,38.431373%,0%);fill-opacity:1;" d="M 83.507812 0.0664062 C 84.714844 0.0664062 85.683594 1.539062 85.683594 3.355469 L 85.683594 46.167969 C 85.683594 47.984375 84.714844 49.457031 83.507812 49.457031 C 82.300781 49.457031 81.3125 47.984375 81.3125 46.167969 L 81.3125 3.355469 C 81.3125 1.539062 82.300781 0.0664062 83.507812 0.0664062 Z M 83.507812 0.0664062 "/>
</g>
<g clip-path="url(#clip2)" clip-rule="nonzero">
<path style=" stroke:none;fill-rule:nonzero;fill:rgb(23.921569%,38.431373%,0%);fill-opacity:1;" d="M 112.328125 40.84375 C 109.054688 40.84375 106.292969 40.0625 104.050781 38.484375 C 101.789062 36.90625 100.085938 34.695312 98.921875 31.863281 C 97.757812 29.027344 97.175781 25.671875 97.175781 21.839844 C 97.175781 18.03125 97.757812 14.699219 98.898438 11.839844 C 100.042969 9.003906 101.726562 6.796875 103.96875 5.238281 C 106.207031 3.660156 108.945312 2.878906 112.179688 2.878906 C 115.5625 2.878906 118.386719 3.679688 120.628906 5.261719 C 122.894531 6.863281 124.574219 9.09375 125.714844 11.925781 C 126.835938 14.785156 127.398438 18.074219 127.398438 21.839844 C 127.398438 26.148438 126.664062 29.847656 125.199219 32.898438 C 123.753906 35.953125 121.621094 38.136719 118.839844 39.480469 L 122.804688 46.058594 L 116.8125 49.328125 L 112.871094 40.84375 C 112.695312 40.84375 112.503906 40.84375 112.328125 40.84375 Z M 112.328125 35.214844 C 114.613281 35.214844 116.535156 34.109375 118.105469 31.882812 C 119.679688 29.652344 120.457031 26.257812 120.457031 21.667969 C 120.457031 17.273438 119.722656 13.941406 118.257812 11.710938 C 116.792969 9.480469 114.765625 8.355469 112.179688 8.355469 C 109.65625 8.355469 107.695312 9.480469 106.292969 11.730469 C 104.871094 13.960938 104.160156 17.296875 104.160156 21.734375 C 104.160156 26.296875 104.914062 29.695312 106.402344 31.90625 C 107.910156 34.109375 109.894531 35.214844 112.328125 35.214844 Z M 140.71875 40.84375 C 138.109375 40.84375 136.171875 40 134.941406 38.3125 C 133.691406 36.601562 133.066406 34.285156 133.066406 31.320312 L 133.066406 13.984375 L 139.578125 13.984375 L 139.578125 30.734375 C 139.578125 32.164062 139.835938 33.355469 140.375 34.261719 C 140.894531 35.171875 141.777344 35.625 143.027344 35.625 C 144.253906 35.625 145.289062 35.171875 146.109375 34.261719 C 146.929688 33.355469 147.335938 32.164062 147.335938 30.734375 L 147.335938 13.984375 L 153.847656 13.984375 L 153.847656 40.214844 L 147.960938 40.214844 L 147.832031 36.816406 C 147.1875 37.855469 146.324219 38.785156 145.222656 39.609375 C 144.125 40.433594 142.617188 40.84375 140.71875 40.84375 Z M 168.65625 9.71875 L 161.347656 9.71875 L 161.347656 2.707031 L 168.65625 2.707031 Z M 168.398438 40.214844 L 161.628906 40.214844 L 161.628906 13.984375 L 168.398438 13.984375 Z M 186.355469 40.84375 C 183.59375 40.84375 181.351562 40.214844 179.605469 38.960938 C 177.882812 37.707031 176.589844 36.039062 175.769531 33.960938 C 174.949219 31.90625 174.519531 29.652344 174.519531 27.207031 C 174.519531 24.78125 174.996094 22.511719 175.921875 20.414062 C 176.824219 18.3125 178.183594 16.601562 179.996094 15.304688 C 181.804688 14.003906 184.046875 13.355469 186.722656 13.355469 C 188.207031 13.355469 189.566406 13.507812 190.773438 13.832031 C 192 14.136719 193.1875 14.785156 194.328125 15.714844 L 192.195312 21.300781 C 191.65625 20.519531 190.902344 19.914062 189.910156 19.480469 C 188.917969 19.046875 187.96875 18.832031 187.085938 18.832031 C 183.292969 18.832031 181.394531 21.601562 181.394531 27.164062 C 181.394531 30.066406 181.871094 32.183594 182.839844 33.484375 C 183.765625 34.804688 185.191406 35.472656 187.085938 35.472656 C 188.335938 35.472656 189.4375 35.238281 190.40625 34.738281 C 191.355469 34.261719 192.066406 33.742188 192.5625 33.203125 L 194.523438 37.902344 C 194.050781 38.417969 193.101562 39.046875 191.65625 39.761719 C 190.234375 40.476562 188.464844 40.84375 186.355469 40.84375 Z M 205.992188 40.214844 L 199.847656 40.214844 L 199.847656 0.195312 L 205.992188 0.195312 L 205.992188 19.828125 L 205.777344 25.996094 L 213.753906 13.984375 L 221.144531 13.984375 L 212.09375 26.039062 L 222.03125 40.214844 L 214.160156 40.214844 L 205.777344 27.53125 L 205.992188 33.9375 Z M 233.023438 40.214844 L 226.578125 40.214844 L 226.578125 2.878906 L 227.09375 2.878906 L 241.773438 20.390625 L 256.367188 2.878906 L 256.949219 2.878906 L 256.949219 40.214844 L 250.484375 40.214844 L 250.484375 24.460938 L 250.722656 18.246094 L 248.867188 21.105469 L 241.730469 29.566406 L 234.597656 21.105469 L 232.742188 18.246094 L 233.023438 24.460938 Z M 270.382812 40.949219 C 268.785156 40.949219 267.449219 40.582031 266.390625 39.871094 C 265.355469 39.15625 264.558594 38.203125 264.066406 37.011719 C 263.546875 35.800781 263.289062 34.5 263.289062 33.050781 C 263.289062 32.25 263.503906 31.363281 263.890625 30.390625 C 264.300781 29.414062 265.035156 28.507812 266.070312 27.621094 C 267.125 26.753906 268.589844 26.039062 270.488281 25.476562 C 272.386719 24.914062 274.800781 24.632812 277.773438 24.632812 L 277.773438 23.417969 C 277.773438 22.121094 277.472656 21.039062 276.847656 20.175781 C 276.242188 19.304688 274.992188 18.875 273.140625 18.875 C 271.78125 18.875 270.464844 19.113281 269.152344 19.589844 C 267.878906 20.042969 266.929688 20.628906 266.328125 21.300781 L 264.238281 16.257812 C 265.273438 15.519531 266.671875 14.871094 268.417969 14.265625 C 270.164062 13.65625 272.105469 13.355469 274.238281 13.355469 C 276.804688 13.355469 278.808594 13.746094 280.230469 14.546875 C 281.652344 15.324219 282.648438 16.453125 283.207031 17.898438 C 283.789062 19.351562 284.089844 21.039062 284.089844 22.988281 L 284.089844 40.214844 L 278.507812 40.214844 L 278.03125 36.46875 C 276.242188 39.460938 273.679688 40.949219 270.382812 40.949219 Z M 273.140625 35.886719 C 273.914062 35.886719 274.757812 35.582031 275.660156 34.933594 C 276.542969 34.285156 277.257812 33.464844 277.773438 32.46875 L 277.773438 28.746094 C 277.601562 28.699219 277.40625 28.679688 277.214844 28.679688 C 277.019531 28.679688 276.78125 28.679688 276.523438 28.679688 C 275.574219 28.679688 274.5625 28.789062 273.527344 29.003906 C 272.46875 29.21875 271.585938 29.609375 270.855469 30.152344 C 270.121094 30.695312 269.753906 31.449219 269.753906 32.425781 C 269.753906 33.679688 270.035156 34.589844 270.597656 35.105469 C 271.132812 35.625 271.996094 35.886719 273.140625 35.886719 Z M 297.304688 40.214844 L 290.792969 40.214844 L 290.792969 13.984375 L 296.679688 13.984375 L 296.980469 18.617188 C 297.261719 17.941406 297.691406 17.207031 298.273438 16.429688 C 298.855469 15.648438 299.675781 15 300.707031 14.480469 C 301.746094 13.941406 303.058594 13.679688 304.699219 13.679688 C 305.214844 13.679688 305.644531 13.703125 306.035156 13.765625 C 306.421875 13.851562 306.765625 13.960938 307.089844 14.089844 L 305.644531 20.996094 C 305.085938 20.433594 304.222656 20.152344 303.082031 20.152344 C 301.746094 20.152344 300.667969 20.433594 299.804688 20.972656 C 298.964844 21.539062 298.316406 22.144531 297.90625 22.835938 C 297.5 23.507812 297.304688 24.046875 297.304688 24.414062 Z M 319.484375 40.996094 C 316.554688 40.996094 314.570312 40.238281 313.535156 38.679688 C 312.5 37.140625 311.984375 34.804688 311.984375 31.6875 L 311.984375 19.523438 L 308.597656 19.523438 L 308.597656 13.984375 L 312.265625 13.984375 L 312.609375 8.464844 L 318.296875 5.976562 L 318.296875 13.984375 L 324.703125 13.984375 L 324.703125 19.523438 L 318.296875 19.523438 L 318.296875 31.515625 C 318.296875 33.050781 318.515625 34.109375 318.925781 34.695312 C 319.355469 35.28125 319.960938 35.582031 320.691406 35.582031 C 321.445312 35.582031 322.265625 35.367188 323.128906 34.980469 C 323.96875 34.566406 324.636719 34.15625 325.113281 33.742188 L 326.359375 39.046875 C 325.84375 39.4375 325.132812 39.78125 324.269531 40.0625 C 323.410156 40.367188 322.546875 40.582031 321.660156 40.757812 C 320.800781 40.929688 320.066406 40.996094 319.484375 40.996094 Z M 319.484375 40.996094 "/>
</g>
<g clip-path="url(#clip3)" clip-rule="nonzero">
<path style=" stroke:none;fill-rule:nonzero;fill:rgb(23.921569%,38.431373%,0%);fill-opacity:1;" d="M 69.757812 19.652344 L 64.34375 0.261719 L 35.523438 0.195312 L 6.726562 0.195312 L 1.292969 19.652344 C 1.015625 20.628906 1.574219 21.667969 2.523438 21.949219 L 2.609375 21.949219 C 2.800781 22.011719 3.019531 22.078125 3.296875 22.078125 L 13.386719 22.078125 L 13.386719 47.445312 C 13.386719 48.484375 14.226562 49.328125 15.242188 49.328125 L 55.875 49.328125 C 56.910156 49.328125 57.726562 48.484375 57.726562 47.445312 L 57.726562 22.078125 L 67.835938 22.078125 C 68.121094 22.078125 68.3125 22.011719 68.527344 21.949219 L 68.59375 21.949219 C 69.496094 21.667969 70.035156 20.628906 69.757812 19.652344 M 65.636719 18.398438 L 60.078125 18.398438 L 57.878906 3.875 L 61.523438 3.875 Z M 48.652344 18.398438 L 47.554688 3.875 L 54.171875 3.875 L 56.28125 18.332031 L 48.652344 18.332031 Z M 14.703125 18.398438 L 16.835938 3.875 L 23.433594 3.875 L 22.332031 18.398438 Z M 27.140625 3.875 L 33.671875 3.875 L 33.671875 18.398438 L 26.039062 18.398438 Z M 37.378906 3.875 L 43.910156 3.875 L 45.007812 18.398438 L 37.378906 18.398438 Z M 9.484375 3.941406 L 13.128906 3.941406 L 10.996094 18.398438 L 5.410156 18.398438 Z M 31.816406 45.582031 L 31.816406 33.421875 L 39.320312 33.421875 L 39.320312 45.582031 Z M 54.019531 45.582031 L 42.875 45.582031 L 42.875 29.71875 L 28.175781 29.71875 L 28.175781 45.582031 L 17.03125 45.582031 L 17.03125 22.078125 L 54.019531 22.078125 Z M 54.019531 45.582031 "/>
</g>
</g>
</svg>
