<svg width="24" height="24" viewBox="0 0 24 24" fill="none" xmlns="http://www.w3.org/2000/svg">
<path fill-rule="evenodd" clip-rule="evenodd" d="M3.37487 11.635C8.7432 9.29579 12.3232 7.75412 14.1149 7.00912C19.229 4.88162 20.2915 4.51245 20.9849 4.49995C21.1365 4.49662 21.4774 4.53412 21.6982 4.71329C21.884 4.86495 21.9357 5.06912 21.9599 5.21245C21.9849 5.35579 22.0149 5.68162 21.9907 5.93745C21.714 8.84912 20.5149 15.9158 19.9049 19.1775C19.6465 20.5575 19.1382 21.02 18.6465 21.0658C17.5765 21.1641 16.764 20.3591 15.7282 19.68C14.1074 18.6175 13.1924 17.9558 11.619 16.9191C9.8007 15.7208 10.979 15.0625 12.0157 13.9858C12.2865 13.7041 16.999 9.41829 17.0899 9.02912C17.1015 8.98079 17.1115 8.79995 17.004 8.70412C16.8957 8.60829 16.7374 8.64079 16.6232 8.66662C16.4599 8.70412 13.8707 10.4158 8.85487 13.8016C8.11987 14.3058 7.45403 14.5516 6.85737 14.5391C6.19987 14.525 4.93487 14.1675 3.99487 13.8616C2.84153 13.4866 1.92487 13.2883 2.00487 12.6516C2.04653 12.32 2.5032 11.9808 3.37487 11.635Z" fill="#3D6200"/>
</svg>
